<svg xmlns="http://www.w3.org/2000/svg" xmlns:xlink="http://www.w3.org/1999/xlink" width="128" zoomAndPan="magnify" viewBox="0 0 96 95.999999" height="128" preserveAspectRatio="xMidYMid meet" version="1.0"><defs><g/><clipPath id="d2a7705a44"><path d="M 6.367188 7.132812 L 28.441406 7.132812 L 28.441406 29.207031 L 6.367188 29.207031 Z M 6.367188 7.132812 " clip-rule="nonzero"/></clipPath><clipPath id="7d6448e191"><path d="M 67.558594 7.132812 L 89.632812 7.132812 L 89.632812 29.207031 L 67.558594 29.207031 Z M 67.558594 7.132812 " clip-rule="nonzero"/></clipPath><clipPath id="ec34c6a70d"><path d="M 67.558594 37.390625 L 89.632812 37.390625 L 89.632812 59.464844 L 67.558594 59.464844 Z M 67.558594 37.390625 " clip-rule="nonzero"/></clipPath><clipPath id="39a80f4b05"><path d="M 6.367188 37.390625 L 28.441406 37.390625 L 28.441406 59.464844 L 6.367188 59.464844 Z M 6.367188 37.390625 " clip-rule="nonzero"/></clipPath><clipPath id="5bb531d85e"><path d="M 36.6875 37.390625 L 58.761719 37.390625 L 58.761719 59.464844 L 36.6875 59.464844 Z M 36.6875 37.390625 " clip-rule="nonzero"/></clipPath><clipPath id="3f03cbd6c9"><path d="M 36.6875 7.132812 L 58.761719 7.132812 L 58.761719 29.207031 L 36.6875 29.207031 Z M 36.6875 7.132812 " clip-rule="nonzero"/></clipPath><clipPath id="2ab5397f93"><path d="M 36.6875 66.792969 L 58.761719 66.792969 L 58.761719 88.867188 L 36.6875 88.867188 Z M 36.6875 66.792969 " clip-rule="nonzero"/></clipPath><clipPath id="854777269b"><path d="M 6.367188 66.792969 L 28.441406 66.792969 L 28.441406 88.867188 L 6.367188 88.867188 Z M 6.367188 66.792969 " clip-rule="nonzero"/></clipPath><clipPath id="fbf122e862"><path d="M 67.558594 66.792969 L 89.632812 66.792969 L 89.632812 88.867188 L 67.558594 88.867188 Z M 67.558594 66.792969 " clip-rule="nonzero"/></clipPath></defs><rect x="-9.6" width="115.2" fill="#ffffff" y="-9.6" height="115.199999" fill-opacity="1"/><rect x="-9.6" width="115.2" fill="#ffffff" y="-9.6" height="115.199999" fill-opacity="1"/><rect x="-9.6" width="115.2" fill="#111729" y="-9.6" height="115.199999" fill-opacity="1"/><g clip-path="url(#d2a7705a44)"><path fill="#6aaa64" d="M 6.367188 7.132812 L 28.441406 7.132812 L 28.441406 29.207031 L 6.367188 29.207031 Z M 6.367188 7.132812 " fill-opacity="1" fill-rule="nonzero"/></g><g fill="#ffffff" fill-opacity="1"><g transform="translate(12.571073, 24.281214)"><g><path d="M 4.921875 0.15625 C 4.210938 0.15625 3.578125 0.0625 3.015625 -0.125 C 2.453125 -0.320312 1.984375 -0.578125 1.609375 -0.890625 C 1.234375 -1.203125 0.953125 -1.546875 0.765625 -1.921875 L 1.5 -2.796875 L 1.6875 -2.796875 C 2.382812 -1.617188 3.460938 -1.03125 4.921875 -1.03125 C 5.773438 -1.03125 6.40625 -1.207031 6.8125 -1.5625 C 7.226562 -1.914062 7.4375 -2.410156 7.4375 -3.046875 C 7.4375 -3.410156 7.367188 -3.722656 7.234375 -3.984375 C 7.097656 -4.242188 6.875 -4.460938 6.5625 -4.640625 C 6.25 -4.828125 5.820312 -4.984375 5.28125 -5.109375 L 3.953125 -5.4375 C 2.972656 -5.675781 2.25 -6.050781 1.78125 -6.5625 C 1.320312 -7.082031 1.09375 -7.738281 1.09375 -8.53125 C 1.09375 -9.09375 1.234375 -9.59375 1.515625 -10.03125 C 1.804688 -10.46875 2.226562 -10.804688 2.78125 -11.046875 C 3.34375 -11.296875 4.007812 -11.421875 4.78125 -11.421875 C 5.625 -11.421875 6.335938 -11.300781 6.921875 -11.0625 C 7.503906 -10.820312 7.972656 -10.46875 8.328125 -10 L 7.671875 -9.125 L 7.484375 -9.125 C 7.160156 -9.519531 6.773438 -9.804688 6.328125 -9.984375 C 5.890625 -10.171875 5.375 -10.265625 4.78125 -10.265625 C 4 -10.265625 3.40625 -10.113281 3 -9.8125 C 2.601562 -9.507812 2.40625 -9.09375 2.40625 -8.5625 C 2.40625 -8.050781 2.550781 -7.644531 2.84375 -7.34375 C 3.144531 -7.039062 3.640625 -6.8125 4.328125 -6.65625 L 5.671875 -6.328125 C 6.773438 -6.066406 7.570312 -5.671875 8.0625 -5.140625 C 8.550781 -4.609375 8.796875 -3.929688 8.796875 -3.109375 C 8.796875 -2.472656 8.648438 -1.90625 8.359375 -1.40625 C 8.078125 -0.914062 7.644531 -0.53125 7.0625 -0.25 C 6.488281 0.0195312 5.773438 0.15625 4.921875 0.15625 Z M 4.921875 0.15625 "/></g></g></g><g clip-path="url(#7d6448e191)"><path fill="#787c7e" d="M 67.558594 7.132812 L 89.632812 7.132812 L 89.632812 29.207031 L 67.558594 29.207031 Z M 67.558594 7.132812 " fill-opacity="1" fill-rule="nonzero"/></g><g fill="#ffffff" fill-opacity="1"><g transform="translate(72.789238, 24.281214)"><g><path d="M 5.8125 0.15625 C 4.425781 0.15625 3.378906 -0.191406 2.671875 -0.890625 C 1.960938 -1.585938 1.609375 -2.625 1.609375 -4 L 1.609375 -11.265625 L 2.921875 -11.265625 L 2.921875 -4.015625 C 2.921875 -3.035156 3.160156 -2.296875 3.640625 -1.796875 C 4.117188 -1.304688 4.84375 -1.0625 5.8125 -1.0625 C 7.726562 -1.0625 8.6875 -2.046875 8.6875 -4.015625 L 8.6875 -11.265625 L 10.015625 -11.265625 L 10.015625 -4 C 10.015625 -2.625 9.660156 -1.585938 8.953125 -0.890625 C 8.242188 -0.191406 7.195312 0.15625 5.8125 0.15625 Z M 5.8125 0.15625 "/></g></g></g><g clip-path="url(#ec34c6a70d)"><path fill="#787c7e" d="M 67.558594 37.390625 L 89.632812 37.390625 L 89.632812 59.464844 L 67.558594 59.464844 Z M 67.558594 37.390625 " fill-opacity="1" fill-rule="nonzero"/></g><g fill="#ffffff" fill-opacity="1"><g transform="translate(72.588769, 54.536905)"><g><path d="M 3 0 L 1.703125 0 L 1.703125 -11.265625 L 3.328125 -11.265625 L 8.828125 -2.65625 L 9.015625 -2.6875 L 9.015625 -11.265625 L 10.296875 -11.265625 L 10.296875 0 L 8.921875 0 L 3.1875 -9.203125 L 3 -9.171875 Z M 3 0 "/></g></g></g><g clip-path="url(#39a80f4b05)"><path fill="#787c7e" d="M 6.367188 37.390625 L 28.441406 37.390625 L 28.441406 59.464844 L 6.367188 59.464844 Z M 6.367188 37.390625 " fill-opacity="1" fill-rule="nonzero"/></g><g fill="#ffffff" fill-opacity="1"><g transform="translate(11.412811, 54.536905)"><g><path d="M 5.34375 -11.265625 C 6.488281 -11.265625 7.46875 -11.0625 8.28125 -10.65625 C 9.101562 -10.25 9.734375 -9.625 10.171875 -8.78125 C 10.617188 -7.945312 10.84375 -6.898438 10.84375 -5.640625 C 10.84375 -4.367188 10.617188 -3.3125 10.171875 -2.46875 C 9.734375 -1.632812 9.101562 -1.015625 8.28125 -0.609375 C 7.46875 -0.203125 6.488281 0 5.34375 0 L 1.703125 0 L 1.703125 -11.265625 Z M 5.21875 -1.125 C 6.15625 -1.125 6.929688 -1.269531 7.546875 -1.5625 C 8.160156 -1.851562 8.628906 -2.328125 8.953125 -2.984375 C 9.273438 -3.648438 9.4375 -4.535156 9.4375 -5.640625 C 9.4375 -6.734375 9.273438 -7.609375 8.953125 -8.265625 C 8.628906 -8.929688 8.160156 -9.410156 7.546875 -9.703125 C 6.929688 -9.992188 6.15625 -10.140625 5.21875 -10.140625 L 3.03125 -10.140625 L 3.03125 -1.125 Z M 5.21875 -1.125 "/></g></g></g><g clip-path="url(#5bb531d85e)"><path fill="#c9b458" d="M 36.6875 37.390625 L 58.761719 37.390625 L 58.761719 59.464844 L 36.6875 59.464844 Z M 36.6875 37.390625 " fill-opacity="1" fill-rule="nonzero"/></g><g fill="#ffffff" fill-opacity="1"><g transform="translate(42.964611, 54.536905)"><g><path d="M 3.03125 -5.3125 L 3.03125 -1.09375 L 8.765625 -1.09375 L 8.765625 0 L 1.703125 0 L 1.703125 -11.265625 L 8.640625 -11.265625 L 8.640625 -10.171875 L 3.03125 -10.171875 L 3.03125 -6.40625 L 7.984375 -6.40625 L 7.984375 -5.3125 Z M 3.03125 -5.3125 "/></g></g></g><g clip-path="url(#3f03cbd6c9)"><path fill="#787c7e" d="M 36.6875 7.132812 L 58.761719 7.132812 L 58.761719 29.207031 L 36.6875 29.207031 Z M 36.6875 7.132812 " fill-opacity="1" fill-rule="nonzero"/></g><g fill="#ffffff" fill-opacity="1"><g transform="translate(43.123712, 24.281214)"><g><path d="M 8.796875 -11.265625 L 8.796875 -10.140625 L 5.265625 -10.140625 L 5.265625 0 L 3.953125 0 L 3.953125 -10.140625 L 0.421875 -10.140625 L 0.421875 -11.265625 Z M 8.796875 -11.265625 "/></g></g></g><g clip-path="url(#2ab5397f93)"><path fill="#787c7e" d="M 36.6875 66.792969 L 58.761719 66.792969 L 58.761719 88.867188 L 36.6875 88.867188 Z M 36.6875 66.792969 " fill-opacity="1" fill-rule="nonzero"/></g><g fill="#ffffff" fill-opacity="1"><g transform="translate(43.257358, 83.937816)"><g><path d="M 3.03125 -11.265625 L 3.03125 -1.09375 L 8.453125 -1.09375 L 8.453125 0 L 1.703125 0 L 1.703125 -11.265625 Z M 3.03125 -11.265625 "/></g></g></g><g clip-path="url(#854777269b)"><path fill="#787c7e" d="M 6.367188 66.792969 L 28.441406 66.792969 L 28.441406 88.867188 L 6.367188 88.867188 Z M 6.367188 66.792969 " fill-opacity="1" fill-rule="nonzero"/></g><g fill="#ffffff" fill-opacity="1"><g transform="translate(12.80018, 83.937816)"><g><path d="M 8.796875 -11.265625 L 8.796875 -10.140625 L 5.265625 -10.140625 L 5.265625 0 L 3.953125 0 L 3.953125 -10.140625 L 0.421875 -10.140625 L 0.421875 -11.265625 Z M 8.796875 -11.265625 "/></g></g></g><g clip-path="url(#fbf122e862)"><path fill="#6aaa64" d="M 67.558594 66.792969 L 89.632812 66.792969 L 89.632812 88.867188 L 67.558594 88.867188 Z M 67.558594 66.792969 " fill-opacity="1" fill-rule="nonzero"/></g><g fill="#ffffff" fill-opacity="1"><g transform="translate(73.836129, 83.937816)"><g><path d="M 3.03125 -5.3125 L 3.03125 -1.09375 L 8.765625 -1.09375 L 8.765625 0 L 1.703125 0 L 1.703125 -11.265625 L 8.640625 -11.265625 L 8.640625 -10.171875 L 3.03125 -10.171875 L 3.03125 -6.40625 L 7.984375 -6.40625 L 7.984375 -5.3125 Z M 3.03125 -5.3125 "/></g></g></g></svg>